<svg id="eN2Hp8ysuCO1" xmlns="http://www.w3.org/2000/svg" xmlns:xlink="http://www.w3.org/1999/xlink" viewBox="0 0 64 64" shape-rendering="geometricPrecision" text-rendering="geometricPrecision" project-id="8e40bced069d46139f80a894b1530303" export-id="eabad13ce80d427695271d02beef0d20" cached="false"><g transform="matrix(.993941-.109911 0.109911 0.993941 0.514286 8.765789)"><line x1="32" y1="18" x2="32" y2="46" transform="matrix(-.659418-.751777-1.036293 0.90898 86.262732 26.969506)" fill="none" stroke="#1e6bff" stroke-width="2.2" stroke-linecap="round" stroke-linejoin="round"/><line x1="20" y1="24" x2="28" y2="24" transform="matrix(.297068 0.61741-.901117 0.433575 21.630365-21.32139)" fill="none" stroke="#1e6bff" stroke-width="2.2" stroke-linecap="round" stroke-linejoin="round"/><line x1="20" y1="30" x2="28" y2="30" transform="translate(5.491903 15.273125)" fill="none" stroke="#1e6bff" stroke-width="2.2" stroke-linecap="round" stroke-linejoin="round"/><line x1="20" y1="30" x2="28" y2="30" transform="translate(13.491903 15.273125)" fill="none" stroke="#1e6bff" stroke-width="2.2" stroke-linecap="round" stroke-linejoin="round"/><line x1="20" y1="30" x2="28" y2="30" transform="translate(18.431661 15.273125)" fill="none" stroke="#1e6bff" stroke-width="2.2" stroke-linecap="round" stroke-linejoin="round"/><line x1="20" y1="36" x2="28" y2="36" transform="translate(-2.508097 9.273125)" fill="none" stroke="#1e6bff" stroke-width="2.2" stroke-linecap="round" stroke-linejoin="round"/><line x1="36" y1="24" x2="44" y2="24" transform="matrix(-.009554 0.999954-.999954-.009554 70.927397-7.768868)" fill="none" stroke="#1e6bff" stroke-width="2.2" stroke-linecap="round" stroke-linejoin="round"/><line x1="36" y1="24" x2="44" y2="24" transform="matrix(-.009554 0.999954-.999954-.009554 70.795305 0.734083)" fill="none" stroke="#1e6bff" stroke-width="2.2" stroke-linecap="round" stroke-linejoin="round"/><line x1="36" y1="30" x2="44" y2="30" transform="matrix(.520693 3.101899-.986202 0.165547 19.16256-108.702745)" fill="none" stroke="#1e6bff" stroke-width="2.2" stroke-linecap="round" stroke-linejoin="round"/><line x1="36" y1="30" x2="44" y2="30" transform="matrix(1.999009 2.27523 0.751236-.660033-85.00158-54.734261)" fill="none" stroke="#1e6bff" stroke-width="2.2" stroke-linecap="round" stroke-linejoin="round"/><line x1="36" y1="36" x2="44" y2="36" transform="matrix(-.010784 0.999942-.999942-.010784 83.056937-16.336642)" fill="none" stroke="#1e6bff" stroke-width="2.2" stroke-linecap="round" stroke-linejoin="round"/></g></svg>
